<svg aria-hidden="true" style="position: absolute; width: 0; height: 0; overflow: hidden;" version="1.1" xmlns="http://www.w3.org/2000/svg" xmlns:xlink="http://www.w3.org/1999/xlink">
<defs>
<symbol id="icon-ellipsis" viewBox="0 0 21 5" width="21" height="5"><path d="M2.5 0a2.5 2.5 0 1 1 0 5 2.5 2.5 0 0 1 0-5Zm8 0a2.5 2.5 0 1 1 0 5 2.5 2.5 0 0 1 0-5Zm8 0a2.5 2.5 0 1 1 0 5 2.5 2.5 0 0 1 0-5Z"  fill-rule="evenodd"></path>
</symbol>
<symbol id="icon-exercise" viewBox="0 0 81 55" ><path d="m33.357.579 16.447.426c.33.009.645.144.88.38l9.953 9.953a4.946 4.946 0 0 1 1.451 3.311l.514 12.87c.02.503.433.895.937.894l9.595-.05a4.438 4.438 0 0 1 4.437 4.43v.26c0 1.164-.453 2.259-1.277 3.082a4.334 4.334 0 0 1-3.083 1.277h-15.77c-2.347 0-4.393-2.045-4.393-4.393l-.001-8.405-12.05-.009.01 15.17c.001.426-.21.826-.56 1.067l-18.098 12.41c-1.363.849-2.958 1.033-4.426.537a5.147 5.147 0 0 1-1.994-1.237 5.247 5.247 0 0 1-1.193-1.85c-.875-2.293.074-4.934 2.256-6.277l12.303-8.973.252-11.28-13.556.442a1.291 1.291 0 0 1-.957-.377L2.237 11.439c-1-.999-1.55-2.38-1.513-3.792a5.124 5.124 0 0 1 1.714-3.71c2.042-1.84 5.234-1.688 7.267.345l8.576 8.576 29.444-1.635-2.133-2.133-12.263.347a4.434 4.434 0 0 1-3.294-1.28l-.016-.015a4.409 4.409 0 0 1-1.294-3.307c.08-2.347 2.16-4.255 4.632-4.256Zm33.78 11.774c3.025-3.025 7.945-3.025 10.97 0 3.024 3.025 3.024 7.944 0 10.97-3.025 3.024-7.945 3.024-10.97 0-3.024-3.026-3.025-7.945 0-10.97Z" fill="#29BA66" fill-rule="nonzero"></path>
</symbol>
<symbol id="icon-play" viewBox="0 0 76 77" ><path d="m60.91 71.846 12.314-19.892c3.317-5.36 3.78-13.818-2.31-19.908l-26.36-26.36c-4.457-4.457-12.586-6.843-19.908-2.31L4.753 15.69c-5.4 3.343-6.275 10.854-1.779 15.35a7.773 7.773 0 0 0 7.346 2.035l7.783-1.945a3.947 3.947 0 0 1 3.731 1.033l22.602 22.602c.97.97 1.367 2.4 1.033 3.732l-1.945 7.782a7.775 7.775 0 0 0 2.037 7.349c4.49 4.49 12.003 3.624 15.349-1.782Zm-24.227-46.12-1.891-1.892-1.892 1.892a2.342 2.342 0 0 1-3.312-3.312l1.892-1.892-1.892-1.891a2.342 2.342 0 0 1 3.312-3.312l1.892 1.891 1.891-1.891a2.342 2.342 0 0 1 3.312 3.312l-1.891 1.891 1.891 1.892a2.342 2.342 0 0 1-3.312 3.312Zm14.19 14.19a2.343 2.343 0 1 1 3.315-3.312 2.343 2.343 0 0 1-3.314 3.312Zm0 7.096a2.343 2.343 0 0 1 3.313-3.312 2.343 2.343 0 0 1-3.312 3.312Zm7.096-7.095a2.343 2.343 0 1 1 3.312 0 2.343 2.343 0 0 1-3.312 0Zm0 7.095a2.343 2.343 0 0 1 3.312-3.312 2.343 2.343 0 0 1-3.312 3.312Z" fill="#3F9CBB" fill-rule="nonzero"></path>
</symbol>
<symbol id="icon-self-care" viewBox="0 0 67 67" ><path d="M.918 50.848c.114 1.723.232 3.5.346 5.336l.003.038.448 6.038c.06.81.412 1.536.951 2.075.54.54 1.266.892 2.075.952l6.038.447.038.003c12.086.755 21.237 1.231 28.95.484 9.007-.873 15.369-3.445 20.02-8.096 8.413-8.413 8.398-21.609-.034-30.041-3.79-3.79-8.959-6.11-14.31-6.526-.415-5.352-2.736-10.52-6.526-14.31C30.484-1.185 17.288-1.2 8.875 7.214-1.295 17.384-.415 30.697.918 50.848ZM21.36 27.122l6.172 6.173 6.16-6.159 6.172 6.173-6.16 6.158 6.173 6.173-6.158 6.158-6.173-6.172-6.158 6.158-6.173-6.172 6.159-6.159-6.173-6.172 6.16-6.159Z" fill="#E6A532" fill-rule="nonzero"></path>
</symbol>
<symbol id="icon-social" viewBox="0 0 75 100" ><g fill="#5A1CBB" fill-rule="nonzero"><path d="M45.834 46.627c4.78 4.78 13.1 5.754 19.257-.403 5.2-5.199 5.198-13.657 0-18.855L47.151 9.428C42.335 4.614 34.02 3.7 27.892 9.83c-4.701 4.7-5.151 12.066-1.352 17.277l-6.265 6.265c-1.339 1.339-.317 3.644 1.585 3.533l13.474-.777 10.499 10.499Zm11.404-11.483a2.567 2.567 0 1 1-3.629 3.631 2.567 2.567 0 0 1 3.63-3.631ZM35.745 20.909a2.567 2.567 0 1 1 3.63-3.629 2.567 2.567 0 0 1-3.63 3.63Zm12.562 5.303a2.567 2.567 0 1 1-3.63 3.63 2.567 2.567 0 0 1 3.63-3.63ZM55.16 63.698 37.219 45.756c-5.198-5.197-13.658-5.197-18.857.001-6.072 6.073-5.26 14.4-.402 19.258l10.499 10.5-.777 13.473c-.11 1.886 2.186 2.931 3.533 1.584l6.265-6.265c5.212 3.8 12.577 3.349 17.277-1.352 6.06-6.059 5.274-14.386.403-19.257ZM25.813 57.24a2.567 2.567 0 1 1 3.63-3.631 2.567 2.567 0 0 1-3.63 3.63Zm8.932 8.931a2.567 2.567 0 1 1 3.63-3.629 2.567 2.567 0 0 1-3.63 3.63Zm8.932 8.933a2.567 2.567 0 1 1 3.63-3.631 2.567 2.567 0 0 1-3.63 3.63Z"/></g>
</symbol>
<symbol id="icon-study" viewBox="0 0 79 79" ><path d="M33.227 1.495a1.87 1.87 0 0 1 2.646 0l1.323 1.323-27.78 27.78c-2.189 2.189-2.1 5.837.088 8.026l12.132 12.132a5.624 5.624 0 0 0 1.096 6.388 5.624 5.624 0 0 0 6.389 1.097l12.132 12.132c2.188 2.188 5.837 2.276 8.025.088l27.78-27.78 1.323 1.322a1.87 1.87 0 0 1 0 2.646L46.632 78.4a1.87 1.87 0 0 1-2.645 0L29.12 63.531a5.624 5.624 0 0 1-6.389-1.097l-5.291-5.291a5.624 5.624 0 0 1-1.097-6.388L1.478 35.89a1.87 1.87 0 0 1 0-2.646ZM59.74 22.783c1.948.27 3.83 1.117 5.325 2.612l10.583 10.583a1.87 1.87 0 0 1 0 2.646L46.544 67.727a1.87 1.87 0 0 1-2.646 0L30.67 54.498a1.872 1.872 0 0 0-2.646 0ZM49.19 6.875a1.87 1.87 0 0 1 2.647 0c4.489 4.489 5.877 8.98 6.178 12.342L27.67 49.56c.349-1.527 1.181-7.463-4.938-13.582a1.87 1.87 0 0 1 0-2.646Zm-7.936-2.646a1.87 1.87 0 0 1 2.645 0l1.323 1.323-25.134 25.134a5.619 5.619 0 0 0 0 7.938c4.005 4.005 4.2 7.696 4.043 9.335L12.15 35.978a1.87 1.87 0 0 1 0-2.646Z" fill="#F04667" fill-rule="nonzero"></path>
</symbol>
<symbol id="icon-work" viewBox="0 0 79 79" ><path d="m18.687 10.43 15.464 30.906c.31.682.743 1.322 1.3 1.88.558.557 1.198.99 1.714 1.217L68.237 59.98 52.484 75.732a8.025 8.025 0 0 1-11.355 0L2.934 37.538a8.025 8.025 0 0 1 0-11.356L18.687 10.43Zm19.345-7.99 10.839 10.838 2.065-2.064a5.845 5.845 0 0 1 8.258 0l8.258 8.259a5.845 5.845 0 0 1 0 8.258l-2.064 2.064 10.839 10.84a8.025 8.025 0 0 1 0 11.355l-4.728 4.728L39.126 40.53a1.963 1.963 0 0 1-.578-.413 1.963 1.963 0 0 1-.413-.578L21.95 7.168l4.728-4.728a8.025 8.025 0 0 1 11.355 0Zm17.033 12.903-2.064 2.065 8.258 8.258 2.064-2.064-8.258-8.259Z" fill="#D96C47" fill-rule="nonzero"></path>
</symbol>
<symbol id="icon-magnifying-glass" viewBox="0 0 20 20">
<path d="M17.545 15.467l-3.779-3.779c0.57-0.935 0.898-2.035 0.898-3.21 0-3.417-2.961-6.377-6.378-6.377s-6.186 2.769-6.186 6.186c0 3.416 2.961 6.377 6.377 6.377 1.137 0 2.2-0.309 3.115-0.844l3.799 3.801c0.372 0.371 0.975 0.371 1.346 0l0.943-0.943c0.371-0.371 0.236-0.84-0.135-1.211zM4.004 8.287c0-2.366 1.917-4.283 4.282-4.283s4.474 2.107 4.474 4.474c0 2.365-1.918 4.283-4.283 4.283s-4.473-2.109-4.473-4.474z"></path>
</symbol>
<symbol id="icon-map" viewBox="0 0 20 20">
<path d="M19.447 3.718l-6-3c-0.281-0.141-0.613-0.141-0.895 0l-5.63 2.815-5.606-1.869c-0.306-0.102-0.64-0.051-0.901 0.138s-0.415 0.49-0.415 0.811v13.001c0 0.379 0.214 0.725 0.553 0.894l6 3c0.141 0.070 0.294 0.106 0.447 0.106s0.307-0.035 0.447-0.106l5.63-2.814 5.606 1.869c0.305 0.1 0.64 0.049 0.901-0.139s0.415-0.49 0.415-0.81v-13.002c0.001-0.379-0.213-0.725-0.552-0.894zM8 5.231l4-2v11.763l-4 2v-11.763zM2 4l4 1.333v11.661l-4-2v-10.994zM18 16.227l-4-1.334v-11.662l4 2v10.996z"></path>
</symbol>
<symbol id="icon-star" viewBox="0 0 20 20">
<path d="M10 1.3l2.388 6.722h6.412l-5.232 3.948 1.871 6.928-5.439-4.154-5.438 4.154 1.87-6.928-5.233-3.948h6.412l2.389-6.722z"></path>
</symbol>
</defs>
</svg>
